<svg xmlns="http://www.w3.org/2000/svg" viewBox="0 0 1200 800" width="1200" height="800" fill="none"><defs><linearGradient id="ceu42" x1="0" y1="0" x2="0" y2="1"><stop offset="0" stop-color="#dff0f7"/><stop offset="1" stop-color="#f4fafb"/></linearGradient><radialGradient id="sol42" cx="0.78" cy="0.12" r="0.42"><stop offset="0" stop-color="#fff8e0" stop-opacity="0.95"/><stop offset="1" stop-color="#fff8e0" stop-opacity="0"/></radialGradient></defs><rect width="1200" height="354" fill="url(#ceu42)"/><rect width="1200" height="354" fill="url(#sol42)"/><path d="M0 356 L0 306 Q120 294.32 240 303.71 Q360 292.19 480 304.9 Q600 290.8 720 302.76 Q840 288.85 960 302.64 Q1080 291.43 1200 305.76 Q1320 280.33 1200 301.15 L1200 356 Z" fill="#63b795" opacity="0.28"/><path d="M0 356 L0 328 Q120 319.92 240 326.7 Q360 319.2 480 325.17 Q600 319.08 720 324.95 Q840 316.93 960 327.15 Q1080 312.91 1200 326.15 Q1320 318.77 1200 326.75 L1200 356 Z" fill="#38907a" opacity="0.35"/><rect x="96" y="246" width="240" height="112.00000000000001" fill="#ffffff" opacity="0.95"/><path d="M82 246 L216 200 L350 246 Z" fill="#b98a72"/><rect x="122" y="276" width="42" height="38" rx="3" fill="#d1ebe0"/><rect x="244" y="276" width="42" height="38" rx="3" fill="#d1ebe0"/><rect x="198" y="300" width="36" height="58" rx="3" fill="#20574a"/><defs><linearGradient id="grama42" x1="0" y1="0" x2="0" y2="1"><stop offset="0" stop-color="#3a7d4c"/><stop offset="1" stop-color="#4f9e63"/></linearGradient></defs><rect y="352" width="1200" height="448" fill="url(#grama42)"/><path d="M72 352 L1128 352 L1200 396.8 L0 396.8 Z" fill="#7cc286" opacity="0.3"/><path d="M57.6 441.6 L1142.4 441.6 L1200 486.4 L0 486.4 Z" fill="#7cc286" opacity="0.3"/><path d="M43.2 531.2 L1156.8 531.2 L1200 576 L0 576 Z" fill="#7cc286" opacity="0.3"/><path d="M28.8 620.8 L1171.2 620.8 L1200 665.6 L0 665.6 Z" fill="#7cc286" opacity="0.3"/><path d="M14.4 710.4 L1185.6 710.4 L1200 755.2 L0 755.2 Z" fill="#7cc286" opacity="0.3"/><path d="M71.45 640.72 l1.1 -6.7" stroke="#3a7d4c" stroke-width="1.3" stroke-linecap="round" opacity="0.32"/><path d="M387.92 605.36 l1.94 -7.59" stroke="#7cc286" stroke-width="1.3" stroke-linecap="round" opacity="0.32"/><path d="M23.42 734.7 l-0.97 -7.43" stroke="#7cc286" stroke-width="1.3" stroke-linecap="round" opacity="0.49"/><path d="M467.7 609.38 l1.48 -4.89" stroke="#7cc286" stroke-width="1.3" stroke-linecap="round" opacity="0.44"/><path d="M759.35 620.34 l0.72 -5.53" stroke="#3a7d4c" stroke-width="1.3" stroke-linecap="round" opacity="0.62"/><path d="M930.45 614.88 l-0.87 -7.68" stroke="#7cc286" stroke-width="1.3" stroke-linecap="round" opacity="0.44"/><path d="M777.97 598.92 l-0.9 -6.62" stroke="#7cc286" stroke-width="1.3" stroke-linecap="round" opacity="0.63"/><path d="M51.87 586.58 l-0.68 -7.31" stroke="#7cc286" stroke-width="1.3" stroke-linecap="round" opacity="0.63"/><path d="M1146.36 700.3 l-0.99 -9.1" stroke="#7cc286" stroke-width="1.3" stroke-linecap="round" opacity="0.49"/><path d="M346.25 612.13 l-0.46 -8.29" stroke="#3a7d4c" stroke-width="1.3" stroke-linecap="round" opacity="0.59"/><path d="M890.69 606.24 l-0.2 -7.29" stroke="#7cc286" stroke-width="1.3" stroke-linecap="round" opacity="0.59"/><path d="M29.88 741.7 l1.98 -6.22" stroke="#7cc286" stroke-width="1.3" stroke-linecap="round" opacity="0.63"/><path d="M649.86 731.23 l1.12 -7.95" stroke="#7cc286" stroke-width="1.3" stroke-linecap="round" opacity="0.5"/><path d="M55.31 763.04 l1.55 -9.5" stroke="#7cc286" stroke-width="1.3" stroke-linecap="round" opacity="0.45"/><path d="M900.45 745.92 l-1.59 -9.35" stroke="#3a7d4c" stroke-width="1.3" stroke-linecap="round" opacity="0.47"/><path d="M55.28 623.47 l-1.35 -4.37" stroke="#3a7d4c" stroke-width="1.3" stroke-linecap="round" opacity="0.6"/><path d="M41.41 728.17 l-0.57 -9.73" stroke="#7cc286" stroke-width="1.3" stroke-linecap="round" opacity="0.43"/><path d="M903.53 695.88 l0.9 -9.74" stroke="#7cc286" stroke-width="1.3" stroke-linecap="round" opacity="0.47"/><path d="M751.19 720.76 l0.15 -4.49" stroke="#3a7d4c" stroke-width="1.3" stroke-linecap="round" opacity="0.52"/><path d="M722.7 601.31 l1.96 -4.53" stroke="#7cc286" stroke-width="1.3" stroke-linecap="round" opacity="0.48"/><path d="M786.99 758.58 l0.27 -11.06" stroke="#7cc286" stroke-width="1.3" stroke-linecap="round" opacity="0.51"/><path d="M948.66 719.68 l0.14 -4.03" stroke="#3a7d4c" stroke-width="1.3" stroke-linecap="round" opacity="0.32"/><path d="M854.37 703.13 l0.57 -8.94" stroke="#7cc286" stroke-width="1.3" stroke-linecap="round" opacity="0.38"/><path d="M372.69 694.31 l0.25 -10.84" stroke="#7cc286" stroke-width="1.3" stroke-linecap="round" opacity="0.58"/><path d="M734.74 738.25 l-0.03 -4.43" stroke="#3a7d4c" stroke-width="1.3" stroke-linecap="round" opacity="0.48"/><path d="M221.87 752.91 l-1.6 -7.28" stroke="#7cc286" stroke-width="1.3" stroke-linecap="round" opacity="0.33"/><path d="M35.01 636.49 l0.47 -5.08" stroke="#7cc286" stroke-width="1.3" stroke-linecap="round" opacity="0.5"/><path d="M435.46 583.47 l0.57 -4.33" stroke="#3a7d4c" stroke-width="1.3" stroke-linecap="round" opacity="0.52"/><path d="M984.18 796.88 l1.85 -5.95" stroke="#3a7d4c" stroke-width="1.3" stroke-linecap="round" opacity="0.37"/><path d="M987.83 583.28 l-0.7 -5.83" stroke="#3a7d4c" stroke-width="1.3" stroke-linecap="round" opacity="0.43"/><path d="M707.66 580.32 l-1.77 -5.41" stroke="#3a7d4c" stroke-width="1.3" stroke-linecap="round" opacity="0.56"/><path d="M246.6 687.83 l-0.11 -10.46" stroke="#7cc286" stroke-width="1.3" stroke-linecap="round" opacity="0.54"/><path d="M458.29 710.66 l-0.37 -10.37" stroke="#7cc286" stroke-width="1.3" stroke-linecap="round" opacity="0.62"/><path d="M602.69 567.38 l-0.87 -7.83" stroke="#7cc286" stroke-width="1.3" stroke-linecap="round" opacity="0.41"/><path d="M410.95 608.42 l-0.35 -5.23" stroke="#7cc286" stroke-width="1.3" stroke-linecap="round" opacity="0.61"/><path d="M777.18 599.15 l-1.79 -6.85" stroke="#3a7d4c" stroke-width="1.3" stroke-linecap="round" opacity="0.46"/><path d="M140.8 758.47 l0.75 -12.06" stroke="#3a7d4c" stroke-width="1.3" stroke-linecap="round" opacity="0.45"/><path d="M1126.99 709.96 l0.33 -4.35" stroke="#7cc286" stroke-width="1.3" stroke-linecap="round" opacity="0.57"/><path d="M113.57 667.14 l-1.45 -9.09" stroke="#7cc286" stroke-width="1.3" stroke-linecap="round" opacity="0.41"/><path d="M443.92 631.18 l0.04 -4.21" stroke="#7cc286" stroke-width="1.3" stroke-linecap="round" opacity="0.38"/><path d="M968.79 612.16 l1.34 -8.22" stroke="#3a7d4c" stroke-width="1.3" stroke-linecap="round" opacity="0.56"/><path d="M45.57 598.05 l-1.11 -5.78" stroke="#7cc286" stroke-width="1.3" stroke-linecap="round" opacity="0.63"/><path d="M596.98 677.03 l0.15 -7.76" stroke="#7cc286" stroke-width="1.3" stroke-linecap="round" opacity="0.63"/><path d="M1168.15 784.85 l0.61 -5.11" stroke="#3a7d4c" stroke-width="1.3" stroke-linecap="round" opacity="0.6"/><path d="M826.41 735.54 l1.14 -5.6" stroke="#7cc286" stroke-width="1.3" stroke-linecap="round" opacity="0.32"/><path d="M666.05 742.11 l0 -8.66" stroke="#7cc286" stroke-width="1.3" stroke-linecap="round" opacity="0.35"/><path d="M7.33 736.47 l0.51 -6.42" stroke="#3a7d4c" stroke-width="1.3" stroke-linecap="round" opacity="0.51"/><path d="M647.41 728.55 l-1.39 -7.02" stroke="#3a7d4c" stroke-width="1.3" stroke-linecap="round" opacity="0.47"/><path d="M191.72 600.2 l-1.42 -4.29" stroke="#3a7d4c" stroke-width="1.3" stroke-linecap="round" opacity="0.34"/><path d="M962.83 616.39 l-1.05 -5.8" stroke="#7cc286" stroke-width="1.3" stroke-linecap="round" opacity="0.54"/><path d="M869.42 741.85 l-1.03 -5.09" stroke="#3a7d4c" stroke-width="1.3" stroke-linecap="round" opacity="0.49"/><path d="M1104.55 631 l-1.62 -6.69" stroke="#3a7d4c" stroke-width="1.3" stroke-linecap="round" opacity="0.56"/><path d="M966.28 726.24 l-0.65 -5.06" stroke="#3a7d4c" stroke-width="1.3" stroke-linecap="round" opacity="0.61"/><path d="M124.23 768.9 l-0.21 -8.94" stroke="#7cc286" stroke-width="1.3" stroke-linecap="round" opacity="0.58"/><path d="M545 617.76 l0.97 -7.19" stroke="#3a7d4c" stroke-width="1.3" stroke-linecap="round" opacity="0.44"/><path d="M1002.13 565.82 l-1.4 -8.22" stroke="#3a7d4c" stroke-width="1.3" stroke-linecap="round" opacity="0.61"/><path d="M38.12 695.93 l-0.68 -6.05" stroke="#7cc286" stroke-width="1.3" stroke-linecap="round" opacity="0.45"/><path d="M653.42 641.71 l-0.62 -9.18" stroke="#3a7d4c" stroke-width="1.3" stroke-linecap="round" opacity="0.65"/><path d="M255.1 641.39 l1.2 -6.42" stroke="#7cc286" stroke-width="1.3" stroke-linecap="round" opacity="0.57"/><path d="M108.47 584.2 l0.02 -6.41" stroke="#3a7d4c" stroke-width="1.3" stroke-linecap="round" opacity="0.32"/><path d="M750.99 683.68 l-0.51 -4.15" stroke="#7cc286" stroke-width="1.3" stroke-linecap="round" opacity="0.58"/><path d="M334.76 680.77 l0.91 -8.63" stroke="#3a7d4c" stroke-width="1.3" stroke-linecap="round" opacity="0.45"/><path d="M66.13 672.05 l1.09 -4.64" stroke="#7cc286" stroke-width="1.3" stroke-linecap="round" opacity="0.43"/><path d="M506.66 561.05 l-0.92 -8.13" stroke="#3a7d4c" stroke-width="1.3" stroke-linecap="round" opacity="0.36"/><path d="M596.44 740.01 l1.32 -5.11" stroke="#3a7d4c" stroke-width="1.3" stroke-linecap="round" opacity="0.59"/><path d="M560.08 560.09 l0.89 -4.81" stroke="#7cc286" stroke-width="1.3" stroke-linecap="round" opacity="0.47"/><path d="M110.91 683.73 l-1 -6.24" stroke="#3a7d4c" stroke-width="1.3" stroke-linecap="round" opacity="0.36"/><path d="M206.4 731.41 l0.99 -11.41" stroke="#3a7d4c" stroke-width="1.3" stroke-linecap="round" opacity="0.34"/><path d="M967.38 616.97 l-1.29 -7.81" stroke="#3a7d4c" stroke-width="1.3" stroke-linecap="round" opacity="0.59"/><path d="M496.2 575.43 l1.15 -5.63" stroke="#7cc286" stroke-width="1.3" stroke-linecap="round" opacity="0.52"/><path d="M1004.26 782.33 l-1.16 -7.64" stroke="#3a7d4c" stroke-width="1.3" stroke-linecap="round" opacity="0.3"/><path d="M567.34 685.94 l-1.24 -4.9" stroke="#7cc286" stroke-width="1.3" stroke-linecap="round" opacity="0.58"/><path d="M1158.84 706.67 l1.55 -8.51" stroke="#3a7d4c" stroke-width="1.3" stroke-linecap="round" opacity="0.51"/><path d="M826.88 747.02 l1.34 -10.46" stroke="#7cc286" stroke-width="1.3" stroke-linecap="round" opacity="0.52"/><path d="M1154.72 624.7 l-1.81 -6.71" stroke="#3a7d4c" stroke-width="1.3" stroke-linecap="round" opacity="0.63"/><path d="M410.29 699.84 l1.75 -5.55" stroke="#7cc286" stroke-width="1.3" stroke-linecap="round" opacity="0.44"/><path d="M50.04 795.38 l0.49 -4.08" stroke="#7cc286" stroke-width="1.3" stroke-linecap="round" opacity="0.55"/><path d="M1158.39 773.36 l-0.55 -4.82" stroke="#7cc286" stroke-width="1.3" stroke-linecap="round" opacity="0.46"/><path d="M714.95 738.48 l-1.1 -8.2" stroke="#7cc286" stroke-width="1.3" stroke-linecap="round" opacity="0.63"/><path d="M180.88 776.84 l0.35 -5.17" stroke="#3a7d4c" stroke-width="1.3" stroke-linecap="round" opacity="0.61"/><path d="M643.89 607.91 l-0.03 -4.43" stroke="#3a7d4c" stroke-width="1.3" stroke-linecap="round" opacity="0.48"/><path d="M377.63 556.92 l-0.77 -6.41" stroke="#7cc286" stroke-width="1.3" stroke-linecap="round" opacity="0.36"/><path d="M611.88 730.52 l0.3 -10.62" stroke="#3a7d4c" stroke-width="1.3" stroke-linecap="round" opacity="0.49"/><path d="M614.29 766.01 l-0.17 -6.39" stroke="#7cc286" stroke-width="1.3" stroke-linecap="round" opacity="0.39"/><path d="M123.22 693.63 l-1.9 -6.49" stroke="#3a7d4c" stroke-width="1.3" stroke-linecap="round" opacity="0.44"/><path d="M176.14 606.69 l1.45 -5" stroke="#3a7d4c" stroke-width="1.3" stroke-linecap="round" opacity="0.38"/><path d="M508.09 696.81 l1.5 -10.41" stroke="#7cc286" stroke-width="1.3" stroke-linecap="round" opacity="0.3"/><path d="M943.02 670.5 l-1.01 -8.47" stroke="#3a7d4c" stroke-width="1.3" stroke-linecap="round" opacity="0.41"/><path d="M127.43 783.97 l1.12 -8.43" stroke="#3a7d4c" stroke-width="1.3" stroke-linecap="round" opacity="0.36"/><path d="M641.83 737.39 l1.48 -11.23" stroke="#3a7d4c" stroke-width="1.3" stroke-linecap="round" opacity="0.53"/><path d="M168.00000000000003 800 Q504 624 672.0000000000001 364" stroke="#d8ded9" stroke-width="54" stroke-linecap="round" fill="none" opacity="0.95"/><path d="M168.00000000000003 800 Q504 624 672.0000000000001 364" stroke="#ffffff" stroke-width="40" stroke-linecap="round" fill="none" opacity="0.35"/><rect x="720" y="312" width="432" height="48" rx="6" fill="#2a7261"/><rect x="720" y="312" width="432" height="16.32" rx="6" fill="#38907a" opacity="0.6"/><rect x="720" y="312" width="432" height="3" fill="#9fdfb9" opacity="0.8"/><path d="M48 480 Q48 400 192 400 Q336 400 336 480 Z" fill="#8a6f52" opacity="0.9"/><circle cx="56.77" cy="458.21" r="6.29" fill="#e8a0b8" opacity="0.92"/><circle cx="236.12" cy="414.43" r="3.91" fill="#9fdfb9" opacity="0.92"/><circle cx="242.35" cy="440.3" r="3.48" fill="#e8a0b8" opacity="0.92"/><circle cx="267.2" cy="439" r="3.37" fill="#e8a0b8" opacity="0.92"/><circle cx="181.07" cy="456.05" r="5.61" fill="#9fdfb9" opacity="0.92"/><circle cx="82.36" cy="446.48" r="6.96" fill="#a98cd0" opacity="0.92"/><circle cx="80.01" cy="464.78" r="5.48" fill="#a98cd0" opacity="0.92"/><circle cx="195.52" cy="462.76" r="6.97" fill="#f2c95e" opacity="0.92"/><circle cx="91.99" cy="409.61" r="5.68" fill="#f2c95e" opacity="0.92"/><circle cx="254.06" cy="464.72" r="3.83" fill="#9fdfb9" opacity="0.92"/><circle cx="311.42" cy="474.92" r="3.77" fill="#e8a0b8" opacity="0.92"/><circle cx="233.85" cy="429.93" r="4.31" fill="#9fdfb9" opacity="0.92"/><circle cx="185.67" cy="435.4" r="6.32" fill="#f2c95e" opacity="0.92"/><circle cx="212.73" cy="459.46" r="5.3" fill="#e8a0b8" opacity="0.92"/><circle cx="57.52" cy="450.52" r="5.75" fill="#9fdfb9" opacity="0.92"/><circle cx="112.8" cy="434.8" r="3.03" fill="#f2c95e" opacity="0.92"/><circle cx="323.72" cy="417.4" r="6.63" fill="#f2c95e" opacity="0.92"/><circle cx="237.84" cy="473.91" r="6.32" fill="#f2c95e" opacity="0.92"/><circle cx="274.3" cy="462.1" r="4.7" fill="#e8a0b8" opacity="0.92"/><circle cx="73.13" cy="412.99" r="5.26" fill="#a98cd0" opacity="0.92"/><circle cx="274.62" cy="438.29" r="4.21" fill="#e8a0b8" opacity="0.92"/><circle cx="248.32" cy="412.84" r="5.5" fill="#9fdfb9" opacity="0.92"/><circle cx="68.67" cy="440.54" r="3.31" fill="#e8a0b8" opacity="0.92"/><circle cx="324.73" cy="411.89" r="5.28" fill="#a98cd0" opacity="0.92"/><circle cx="141.95" cy="424.74" r="4.49" fill="#f2c95e" opacity="0.92"/><circle cx="247.45" cy="466.96" r="4.25" fill="#a98cd0" opacity="0.92"/><ellipse cx="984" cy="389.03" rx="65.37" ry="13.83" fill="#142822" opacity="0.18"/><path d="M971.43 384 L975.2 306.06 L992.8 306.06 L996.57 384 Z" fill="#9c7a53"/><circle cx="951.31" cy="285.94" r="37.71" fill="#20574a"/><circle cx="1014.17" cy="278.4" r="33.94" fill="#2a7261"/><circle cx="984" cy="250.74" r="42.74" fill="#38907a"/><circle cx="994.06" cy="235.66" r="20.11" fill="#63b795" opacity="0.75"/><ellipse cx="432" cy="400.4" rx="34.2" ry="7.2" fill="#142822" opacity="0.16"/><circle cx="432" cy="368" r="36" fill="#2a7261"/><path d="M409.68 357.2 A 36 36 0 0 1 435.6 333.8" stroke="#38907a" stroke-width="9.36" stroke-linecap="round" opacity="0.55"/><ellipse cx="540" cy="403.04" rx="24.32" ry="5.12" fill="#142822" opacity="0.16"/><circle cx="540" cy="380" r="25.6" fill="#2a7261"/><path d="M524.13 372.32 A 25.6 25.6 0 0 1 542.56 355.68" stroke="#38907a" stroke-width="6.66" stroke-linecap="round" opacity="0.55"/><ellipse cx="816" cy="437.16" rx="38.71" ry="10.32" fill="#142822" opacity="0.18"/><path d="M809.55 432 Q800.52 349.42 813.42 277.16 L822.45 277.16 Q818.58 352 823.74 432 Z" fill="#9c7a53"/><path d="M816 277.16 Q778.41 240.29 740.82 260.2" stroke="#38907a" stroke-width="9.03" stroke-linecap="round"/><path d="M816 277.16 Q788.72 230.64 761.44 240.89" stroke="#2a7261" stroke-width="9.03" stroke-linecap="round"/><path d="M816 277.16 Q804.97 224.93 793.95 229.48" stroke="#38907a" stroke-width="9.03" stroke-linecap="round"/><path d="M816 277.16 Q823.63 224.43 831.26 228.47" stroke="#2a7261" stroke-width="9.03" stroke-linecap="round"/><path d="M816 277.16 Q840.63 229.23 865.25 238.08" stroke="#38907a" stroke-width="9.03" stroke-linecap="round"/><path d="M816 277.16 Q852.25 238.29 888.5 256.2" stroke="#2a7261" stroke-width="9.03" stroke-linecap="round"/><path d="M816 277.16 Q855.98 249.64 895.95 278.89" stroke="#38907a" stroke-width="9.03" stroke-linecap="round"/><defs><radialGradient id="vig42" cx="0.5" cy="0.45" r="0.78"><stop offset="0.55" stop-color="#000" stop-opacity="0"/><stop offset="1" stop-color="#142822" stop-opacity="0.2"/></radialGradient></defs><rect width="1200" height="800" fill="url(#vig42)"/></svg>