<svg xmlns="http://www.w3.org/2000/svg" viewBox="0 0 1200 800" width="1200" height="800" fill="none"><defs><linearGradient id="ceu47" x1="0" y1="0" x2="0" y2="1"><stop offset="0" stop-color="#dff0f7"/><stop offset="1" stop-color="#f4fafb"/></linearGradient><radialGradient id="sol47" cx="0.78" cy="0.12" r="0.42"><stop offset="0" stop-color="#fff8e0" stop-opacity="0.95"/><stop offset="1" stop-color="#fff8e0" stop-opacity="0"/></radialGradient></defs><rect width="1200" height="402" fill="url(#ceu47)"/><rect width="1200" height="402" fill="url(#sol47)"/><path d="M0 404 L0 354 Q120 342.23 240 349.26 Q360 341.09 480 349.8 Q600 332.13 720 353.02 Q840 329.66 960 352.52 Q1080 340.78 1200 350.52 Q1320 332.55 1200 350.45 L1200 404 Z" fill="#63b795" opacity="0.28"/><path d="M0 404 L0 376 Q120 367.86 240 373.11 Q360 368 480 374.84 Q600 366.37 720 375.01 Q840 366.36 960 374.17 Q1080 362.38 1200 374.33 Q1320 366.49 1200 372.74 L1200 404 Z" fill="#38907a" opacity="0.35"/><defs><linearGradient id="grama47" x1="0" y1="0" x2="0" y2="1"><stop offset="0" stop-color="#3a7d4c"/><stop offset="1" stop-color="#4f9e63"/></linearGradient></defs><rect y="400" width="1200" height="400" fill="url(#grama47)"/><path d="M72 400 L1128 400 L1200 457.14 L0 457.14 Z" fill="#7cc286" opacity="0.3"/><path d="M51.43 514.29 L1148.57 514.29 L1200 571.43 L0 571.43 Z" fill="#7cc286" opacity="0.3"/><path d="M30.86 628.57 L1169.14 628.57 L1200 685.71 L0 685.71 Z" fill="#7cc286" opacity="0.3"/><path d="M10.29 742.86 L1189.71 742.86 L1200 800 L0 800 Z" fill="#7cc286" opacity="0.3"/><path d="M82.47 623.05 l-1.84 -5.07" stroke="#3a7d4c" stroke-width="1.3" stroke-linecap="round" opacity="0.42"/><path d="M753.61 703.26 l-0.57 -8.73" stroke="#3a7d4c" stroke-width="1.3" stroke-linecap="round" opacity="0.44"/><path d="M1039.09 665.86 l-0.59 -7.83" stroke="#7cc286" stroke-width="1.3" stroke-linecap="round" opacity="0.42"/><path d="M728.07 592.25 l0.97 -6.89" stroke="#3a7d4c" stroke-width="1.3" stroke-linecap="round" opacity="0.42"/><path d="M105.65 641.43 l-1.02 -8.41" stroke="#7cc286" stroke-width="1.3" stroke-linecap="round" opacity="0.47"/><path d="M566.21 761.19 l0.62 -10.56" stroke="#3a7d4c" stroke-width="1.3" stroke-linecap="round" opacity="0.36"/><path d="M123.02 756.35 l0.34 -10.27" stroke="#3a7d4c" stroke-width="1.3" stroke-linecap="round" opacity="0.62"/><path d="M607.3 752.77 l-1.16 -9.5" stroke="#3a7d4c" stroke-width="1.3" stroke-linecap="round" opacity="0.64"/><path d="M352.52 737.94 l1.3 -7.69" stroke="#3a7d4c" stroke-width="1.3" stroke-linecap="round" opacity="0.59"/><path d="M1118.48 762.76 l0.35 -9.77" stroke="#3a7d4c" stroke-width="1.3" stroke-linecap="round" opacity="0.65"/><path d="M56.64 740.52 l-0.89 -10.55" stroke="#7cc286" stroke-width="1.3" stroke-linecap="round" opacity="0.53"/><path d="M320.36 760.85 l0.56 -10.5" stroke="#3a7d4c" stroke-width="1.3" stroke-linecap="round" opacity="0.47"/><path d="M168.88 774.59 l-0.98 -11.89" stroke="#7cc286" stroke-width="1.3" stroke-linecap="round" opacity="0.41"/><path d="M951.5 758.64 l-0.08 -11.68" stroke="#7cc286" stroke-width="1.3" stroke-linecap="round" opacity="0.5"/><path d="M514.34 726.52 l0.72 -10.2" stroke="#3a7d4c" stroke-width="1.3" stroke-linecap="round" opacity="0.37"/><path d="M570.32 791.15 l1.74 -8.58" stroke="#7cc286" stroke-width="1.3" stroke-linecap="round" opacity="0.53"/><path d="M606.11 598.6 l1.37 -6.59" stroke="#7cc286" stroke-width="1.3" stroke-linecap="round" opacity="0.48"/><path d="M822.98 796.09 l-1.35 -5.68" stroke="#3a7d4c" stroke-width="1.3" stroke-linecap="round" opacity="0.61"/><path d="M81.49 686.11 l-0.37 -4.48" stroke="#3a7d4c" stroke-width="1.3" stroke-linecap="round" opacity="0.33"/><path d="M489.57 724.41 l1.43 -7.39" stroke="#7cc286" stroke-width="1.3" stroke-linecap="round" opacity="0.43"/><path d="M595.38 592.87 l-0.62 -7.34" stroke="#3a7d4c" stroke-width="1.3" stroke-linecap="round" opacity="0.4"/><path d="M312.19 789.95 l-0.85 -4.22" stroke="#7cc286" stroke-width="1.3" stroke-linecap="round" opacity="0.58"/><path d="M259.19 707.61 l-0.61 -9.49" stroke="#3a7d4c" stroke-width="1.3" stroke-linecap="round" opacity="0.49"/><path d="M130.85 723.58 l-0.92 -7.98" stroke="#7cc286" stroke-width="1.3" stroke-linecap="round" opacity="0.48"/><path d="M698.88 614.89 l-0.8 -8.83" stroke="#3a7d4c" stroke-width="1.3" stroke-linecap="round" opacity="0.41"/><path d="M642.74 690.66 l0.76 -4.63" stroke="#7cc286" stroke-width="1.3" stroke-linecap="round" opacity="0.49"/><path d="M404.43 640.73 l0.04 -6.25" stroke="#7cc286" stroke-width="1.3" stroke-linecap="round" opacity="0.42"/><path d="M799.13 687.8 l1.98 -5.34" stroke="#7cc286" stroke-width="1.3" stroke-linecap="round" opacity="0.57"/><path d="M467.51 662.92 l1.15 -4.59" stroke="#3a7d4c" stroke-width="1.3" stroke-linecap="round" opacity="0.48"/><path d="M604.47 691.71 l1.73 -4.4" stroke="#3a7d4c" stroke-width="1.3" stroke-linecap="round" opacity="0.59"/><path d="M601.57 760.43 l0.79 -8.15" stroke="#3a7d4c" stroke-width="1.3" stroke-linecap="round" opacity="0.51"/><path d="M595.41 667.22 l1.67 -8.23" stroke="#7cc286" stroke-width="1.3" stroke-linecap="round" opacity="0.57"/><path d="M330.32 669.52 l1.06 -5.97" stroke="#3a7d4c" stroke-width="1.3" stroke-linecap="round" opacity="0.47"/><path d="M279.02 669.15 l0.08 -9.65" stroke="#3a7d4c" stroke-width="1.3" stroke-linecap="round" opacity="0.36"/><path d="M483.24 581.6 l1.43 -6.42" stroke="#7cc286" stroke-width="1.3" stroke-linecap="round" opacity="0.42"/><path d="M777.24 611.87 l0.21 -7.81" stroke="#7cc286" stroke-width="1.3" stroke-linecap="round" opacity="0.36"/><path d="M403.55 583.93 l-1.68 -6.43" stroke="#3a7d4c" stroke-width="1.3" stroke-linecap="round" opacity="0.35"/><path d="M394.47 604.6 l-0.53 -4.64" stroke="#7cc286" stroke-width="1.3" stroke-linecap="round" opacity="0.37"/><path d="M1015.75 604.51 l-1.58 -5.08" stroke="#3a7d4c" stroke-width="1.3" stroke-linecap="round" opacity="0.4"/><path d="M783.59 655.49 l-0.22 -8.9" stroke="#7cc286" stroke-width="1.3" stroke-linecap="round" opacity="0.45"/><path d="M516.85 703.18 l-0.24 -5.93" stroke="#7cc286" stroke-width="1.3" stroke-linecap="round" opacity="0.53"/><path d="M1024.72 618.93 l-1.4 -6.05" stroke="#7cc286" stroke-width="1.3" stroke-linecap="round" opacity="0.43"/><path d="M58.98 759.85 l0.64 -8.76" stroke="#3a7d4c" stroke-width="1.3" stroke-linecap="round" opacity="0.42"/><path d="M760.43 741.89 l-0.33 -5.15" stroke="#3a7d4c" stroke-width="1.3" stroke-linecap="round" opacity="0.64"/><path d="M756.65 731.44 l-1.44 -7.46" stroke="#3a7d4c" stroke-width="1.3" stroke-linecap="round" opacity="0.32"/><path d="M175.96 780.05 l1.84 -9.53" stroke="#3a7d4c" stroke-width="1.3" stroke-linecap="round" opacity="0.57"/><path d="M536.01 612.57 l1.75 -6.68" stroke="#7cc286" stroke-width="1.3" stroke-linecap="round" opacity="0.37"/><path d="M757.07 691.83 l0.01 -4" stroke="#3a7d4c" stroke-width="1.3" stroke-linecap="round" opacity="0.54"/><path d="M28.89 711.61 l-1.66 -7.94" stroke="#3a7d4c" stroke-width="1.3" stroke-linecap="round" opacity="0.59"/><path d="M1125.12 602.24 l1.66 -6.4" stroke="#3a7d4c" stroke-width="1.3" stroke-linecap="round" opacity="0.34"/><path d="M732.77 676.49 l0.6 -7.46" stroke="#3a7d4c" stroke-width="1.3" stroke-linecap="round" opacity="0.54"/><path d="M984.27 651.56 l-0.5 -7.44" stroke="#7cc286" stroke-width="1.3" stroke-linecap="round" opacity="0.59"/><path d="M1160.73 711.72 l-1.4 -4.15" stroke="#7cc286" stroke-width="1.3" stroke-linecap="round" opacity="0.58"/><path d="M122.66 763.5 l0.03 -10.24" stroke="#3a7d4c" stroke-width="1.3" stroke-linecap="round" opacity="0.32"/><path d="M683.33 750.17 l-0.66 -8.49" stroke="#3a7d4c" stroke-width="1.3" stroke-linecap="round" opacity="0.63"/><path d="M859.94 762.43 l0.83 -7.66" stroke="#3a7d4c" stroke-width="1.3" stroke-linecap="round" opacity="0.44"/><path d="M534.07 762.95 l-0.9 -10.19" stroke="#7cc286" stroke-width="1.3" stroke-linecap="round" opacity="0.37"/><path d="M430.3 629.78 l1.44 -9.14" stroke="#3a7d4c" stroke-width="1.3" stroke-linecap="round" opacity="0.62"/><path d="M393.16 721.48 l-1.94 -6.37" stroke="#3a7d4c" stroke-width="1.3" stroke-linecap="round" opacity="0.31"/><path d="M1008.05 741 l0.14 -7.06" stroke="#7cc286" stroke-width="1.3" stroke-linecap="round" opacity="0.36"/><path d="M211.4 713.27 l1.39 -10.58" stroke="#7cc286" stroke-width="1.3" stroke-linecap="round" opacity="0.62"/><path d="M51.63 611.85 l1.19 -4.71" stroke="#3a7d4c" stroke-width="1.3" stroke-linecap="round" opacity="0.44"/><path d="M676.61 734.62 l1.31 -6.17" stroke="#7cc286" stroke-width="1.3" stroke-linecap="round" opacity="0.46"/><path d="M650.45 737.21 l-0.05 -4.61" stroke="#7cc286" stroke-width="1.3" stroke-linecap="round" opacity="0.33"/><path d="M691.28 698.96 l-0.98 -4.45" stroke="#7cc286" stroke-width="1.3" stroke-linecap="round" opacity="0.37"/><path d="M447.1 742.03 l-1.16 -6.63" stroke="#3a7d4c" stroke-width="1.3" stroke-linecap="round" opacity="0.36"/><path d="M802.18 748.57 l-1.8 -7.43" stroke="#7cc286" stroke-width="1.3" stroke-linecap="round" opacity="0.56"/><path d="M469.23 796.22 l1.05 -8.63" stroke="#3a7d4c" stroke-width="1.3" stroke-linecap="round" opacity="0.61"/><path d="M23.8 790.91 l-1.75 -4.1" stroke="#7cc286" stroke-width="1.3" stroke-linecap="round" opacity="0.48"/><path d="M521.57 726.96 l-1.07 -8.53" stroke="#3a7d4c" stroke-width="1.3" stroke-linecap="round" opacity="0.62"/><path d="M37.87 627.1 l-0.56 -7.82" stroke="#7cc286" stroke-width="1.3" stroke-linecap="round" opacity="0.57"/><path d="M271.38 757.45 l0.17 -12.03" stroke="#7cc286" stroke-width="1.3" stroke-linecap="round" opacity="0.33"/><path d="M211.04 586.76 l1.03 -7.69" stroke="#3a7d4c" stroke-width="1.3" stroke-linecap="round" opacity="0.5"/><path d="M704.02 670.04 l0.54 -9.89" stroke="#3a7d4c" stroke-width="1.3" stroke-linecap="round" opacity="0.33"/><path d="M48.81 732.01 l-1.72 -6.77" stroke="#7cc286" stroke-width="1.3" stroke-linecap="round" opacity="0.34"/><path d="M876.66 793.4 l-1.87 -9.97" stroke="#7cc286" stroke-width="1.3" stroke-linecap="round" opacity="0.65"/><path d="M1095.74 597.59 l-1.61 -5.91" stroke="#7cc286" stroke-width="1.3" stroke-linecap="round" opacity="0.55"/><path d="M1045.29 797.57 l0.82 -9.91" stroke="#7cc286" stroke-width="1.3" stroke-linecap="round" opacity="0.48"/><path d="M106.97 607.26 l0.47 -5.73" stroke="#7cc286" stroke-width="1.3" stroke-linecap="round" opacity="0.52"/><path d="M1164.58 638.5 l1.55 -5.58" stroke="#7cc286" stroke-width="1.3" stroke-linecap="round" opacity="0.57"/><path d="M880.9 760.07 l-1.32 -4.86" stroke="#7cc286" stroke-width="1.3" stroke-linecap="round" opacity="0.32"/><path d="M1114.65 621.34 l1.34 -8.78" stroke="#7cc286" stroke-width="1.3" stroke-linecap="round" opacity="0.5"/><path d="M295.56 686.11 l0.6 -6.47" stroke="#3a7d4c" stroke-width="1.3" stroke-linecap="round" opacity="0.62"/><path d="M410.25 598.9 l-1.57 -7.57" stroke="#3a7d4c" stroke-width="1.3" stroke-linecap="round" opacity="0.32"/><path d="M918.4 725.15 l1 -6.73" stroke="#3a7d4c" stroke-width="1.3" stroke-linecap="round" opacity="0.56"/><path d="M18.75 589.01 l-0.67 -4.94" stroke="#3a7d4c" stroke-width="1.3" stroke-linecap="round" opacity="0.32"/><path d="M141.44 682.42 l0.15 -4.91" stroke="#7cc286" stroke-width="1.3" stroke-linecap="round" opacity="0.57"/><path d="M1120.23 739.39 l1.29 -6.27" stroke="#3a7d4c" stroke-width="1.3" stroke-linecap="round" opacity="0.57"/><path d="M960.68 734.69 l1 -8.06" stroke="#7cc286" stroke-width="1.3" stroke-linecap="round" opacity="0.54"/><path d="M1194.51 711.49 l-0.09 -5.41" stroke="#7cc286" stroke-width="1.3" stroke-linecap="round" opacity="0.37"/><path d="M80 400 L80 242 L137.78 259.11 L195.56 268.84 L253.33 269.21 L311.11 262.86 L368.89 240.98 L426.67 260.58 L484.44 269.33 L542.22 266.34 L600 260.38 L657.78 261.77 L715.56 262.59 L773.33 251.45 L831.11 254.01 L888.89 249.01 L946.67 257.88 L1004.44 245.42 L1062.22 268.99 L1120 400 Z" fill="#6f7d4a"/><path d="M810.78 261.94 Q807.83 237.95 814.93 221.96" stroke="#b9a877" stroke-width="3.56" stroke-linecap="round" opacity="0.6"/><path d="M208.55 257.24 Q213.29 245.69 206.03 237.99" stroke="#6f7d4a" stroke-width="2.73" stroke-linecap="round" opacity="0.68"/><path d="M681.12 261.24 Q682.11 242.35 694.33 229.75" stroke="#b9a877" stroke-width="2.99" stroke-linecap="round" opacity="0.75"/><path d="M464.99 254.19 Q462.53 231.85 458.42 216.96" stroke="#b9a877" stroke-width="3.29" stroke-linecap="round" opacity="0.92"/><path d="M985.08 257.2 Q984.45 231.9 984.22 215.03" stroke="#b9a877" stroke-width="2.61" stroke-linecap="round" opacity="0.73"/><path d="M282.48 260.17 Q290.18 242.12 292.31 230.08" stroke="#b9a877" stroke-width="2.24" stroke-linecap="round" opacity="0.66"/><path d="M214.08 256.79 Q210.92 233.52 225.65 218.01" stroke="#6f7d4a" stroke-width="2.46" stroke-linecap="round" opacity="0.9"/><path d="M265.63 256.56 Q269.48 234.59 258.4 219.94" stroke="#b9a877" stroke-width="3.29" stroke-linecap="round" opacity="0.81"/><path d="M145.07 253.18 Q138.86 225.73 147.3 207.44" stroke="#b9a877" stroke-width="3.23" stroke-linecap="round" opacity="0.81"/><path d="M1094.88 255.81 Q1099.95 234.03 1107.29 219.51" stroke="#b9a877" stroke-width="2.25" stroke-linecap="round" opacity="0.71"/><path d="M346.73 253.85 Q352.86 224.7 339.94 205.26" stroke="#b9a877" stroke-width="2.51" stroke-linecap="round" opacity="0.71"/><path d="M357.6 263.78 Q353.71 249.46 364.7 239.91" stroke="#6f7d4a" stroke-width="2.52" stroke-linecap="round" opacity="0.69"/><path d="M613.8 250.97 Q608.84 240.03 614.89 232.74" stroke="#6f7d4a" stroke-width="2.74" stroke-linecap="round" opacity="0.92"/><path d="M828.49 253.32 Q827.96 239.21 833.3 229.81" stroke="#6f7d4a" stroke-width="2.18" stroke-linecap="round" opacity="0.61"/><path d="M1076.66 254.73 Q1072.9 240.07 1076.3 230.29" stroke="#b9a877" stroke-width="2.63" stroke-linecap="round" opacity="0.89"/><path d="M596.36 259.29 Q589.43 243.38 596.25 232.78" stroke="#6f7d4a" stroke-width="3.04" stroke-linecap="round" opacity="0.66"/><path d="M595.55 263.27 Q603.47 244.27 605.5 231.6" stroke="#6f7d4a" stroke-width="2.32" stroke-linecap="round" opacity="0.93"/><path d="M629.41 262.27 Q632.5 247.26 618.75 237.25" stroke="#b9a877" stroke-width="2.05" stroke-linecap="round" opacity="0.85"/><path d="M1007.33 258.65 Q1007.48 244.92 1020.03 235.76" stroke="#b9a877" stroke-width="1.68" stroke-linecap="round" opacity="0.83"/><path d="M715.17 251.99 Q721.32 218.6 710.57 196.34" stroke="#b9a877" stroke-width="2.8" stroke-linecap="round" opacity="0.93"/><path d="M634.77 253.27 Q631.96 221.43 622.9 200.21" stroke="#b9a877" stroke-width="1.95" stroke-linecap="round" opacity="0.84"/><path d="M1003.55 258.4 Q1007.14 244.43 1011.91 235.11" stroke="#b9a877" stroke-width="3.3" stroke-linecap="round" opacity="0.81"/><path d="M441.39 253.75 Q435.48 235.72 433.85 223.7" stroke="#6f7d4a" stroke-width="2.69" stroke-linecap="round" opacity="0.65"/><path d="M267.35 259.16 Q272.94 247.94 264.61 240.46" stroke="#b9a877" stroke-width="2.48" stroke-linecap="round" opacity="0.84"/><path d="M745.56 256.89 Q740.3 232.43 749.32 216.12" stroke="#b9a877" stroke-width="2.73" stroke-linecap="round" opacity="0.92"/><path d="M671.93 263.58 Q669.21 241.6 672.2 226.95" stroke="#6f7d4a" stroke-width="2.09" stroke-linecap="round" opacity="0.93"/><path d="M721.15 260.71 Q713.75 231.77 733.01 212.47" stroke="#b9a877" stroke-width="3.4" stroke-linecap="round" opacity="0.61"/><path d="M245.03 254.24 Q244.49 239.55 233.81 229.75" stroke="#b9a877" stroke-width="1.67" stroke-linecap="round" opacity="0.95"/><path d="M818.29 262.97 Q810.74 241.45 827.22 227.1" stroke="#b9a877" stroke-width="2.23" stroke-linecap="round" opacity="0.6"/><path d="M695.27 259.92 Q694.85 231.6 706.94 212.73" stroke="#6f7d4a" stroke-width="1.77" stroke-linecap="round" opacity="0.75"/><path d="M863.7 251.83 Q867.28 240.13 865.44 232.34" stroke="#b9a877" stroke-width="1.96" stroke-linecap="round" opacity="0.93"/><path d="M974.64 260.18 Q980.22 229.31 975.52 208.73" stroke="#b9a877" stroke-width="3.09" stroke-linecap="round" opacity="0.68"/><path d="M557.45 261.11 Q559.73 231.3 569.63 211.43" stroke="#b9a877" stroke-width="2.88" stroke-linecap="round" opacity="0.88"/><path d="M313.38 259.75 Q318.48 246.11 315.64 237.02" stroke="#6f7d4a" stroke-width="1.99" stroke-linecap="round" opacity="0.64"/><path d="M856.3 256.74 Q855.07 228.75 870.9 210.08" stroke="#6f7d4a" stroke-width="3.38" stroke-linecap="round" opacity="0.9"/><path d="M1095.34 256.42 Q1098.5 246.05 1103.42 239.13" stroke="#b9a877" stroke-width="3.01" stroke-linecap="round" opacity="0.71"/><path d="M1090.03 260.32 Q1093.93 228.76 1091.98 207.72" stroke="#6f7d4a" stroke-width="2.9" stroke-linecap="round" opacity="0.64"/><path d="M394.26 259.54 Q398.72 230.17 401.96 210.59" stroke="#6f7d4a" stroke-width="2.85" stroke-linecap="round" opacity="0.66"/><path d="M208.32 261.08 Q206.29 229.26 201.6 208.05" stroke="#b9a877" stroke-width="2.62" stroke-linecap="round" opacity="0.62"/><path d="M479.63 257.11 Q482.28 241.76 492.48 231.52" stroke="#6f7d4a" stroke-width="2.7" stroke-linecap="round" opacity="0.66"/><path d="M155.98 253.58 Q152.12 238.17 169.75 227.9" stroke="#6f7d4a" stroke-width="1.64" stroke-linecap="round" opacity="0.74"/><path d="M828.17 256.14 Q820.79 241.33 838.28 231.46" stroke="#b9a877" stroke-width="2.66" stroke-linecap="round" opacity="0.75"/><path d="M632.27 258.51 Q638.79 244.98 645.22 235.95" stroke="#b9a877" stroke-width="3.15" stroke-linecap="round" opacity="0.66"/><path d="M129.23 251.08 Q125.54 236.31 118.6 226.46" stroke="#b9a877" stroke-width="3.21" stroke-linecap="round" opacity="0.79"/><path d="M1081.13 261.34 Q1074.73 246.17 1095.35 236.06" stroke="#6f7d4a" stroke-width="3.06" stroke-linecap="round" opacity="0.58"/><path d="M138.98 255.57 Q142.85 244.34 143.06 236.85" stroke="#b9a877" stroke-width="3.41" stroke-linecap="round" opacity="0.9"/><defs><radialGradient id="vig47" cx="0.5" cy="0.45" r="0.78"><stop offset="0.55" stop-color="#000" stop-opacity="0"/><stop offset="1" stop-color="#142822" stop-opacity="0.2"/></radialGradient></defs><rect width="1200" height="800" fill="url(#vig47)"/></svg>