<svg xmlns="http://www.w3.org/2000/svg" viewBox="0 0 800 600" width="800" height="600" fill="none"><defs><linearGradient id="ceu14" x1="0" y1="0" x2="0" y2="1"><stop offset="0" stop-color="#dff0f7"/><stop offset="1" stop-color="#f4fafb"/></linearGradient><radialGradient id="sol14" cx="0.78" cy="0.12" r="0.42"><stop offset="0" stop-color="#fff8e0" stop-opacity="0.95"/><stop offset="1" stop-color="#fff8e0" stop-opacity="0"/></radialGradient></defs><rect width="800" height="206.00000000000003" fill="url(#ceu14)"/><rect width="800" height="206.00000000000003" fill="url(#sol14)"/><path d="M0 208.00000000000003 L0 158.00000000000003 Q80 147.17 160 153.99 Q240 135.06 320 156.39 Q400 136.72 480 155.96 Q560 135.55 640 157.36 Q720 142.85 800 153.87 Q880 135.72 800 155.59 L800 208.00000000000003 Z" fill="#63b795" opacity="0.28"/><path d="M0 208.00000000000003 L0 180.00000000000003 Q80 172.51 160 176.72 Q240 163.37 320 177.52 Q400 163.83 480 179.51 Q560 162.64 640 178.11 Q720 165.23 800 179.03 Q880 172.45 800 177.29 L800 208.00000000000003 Z" fill="#38907a" opacity="0.35"/><rect y="204.00000000000003" width="800" height="396" fill="#a89070"/><path d="M0 204 L800 210" stroke="#8a6f52" stroke-width="2" opacity="0.35"/><path d="M0 237 L800 243" stroke="#8a6f52" stroke-width="2" opacity="0.35"/><path d="M0 270 L800 276" stroke="#8a6f52" stroke-width="2" opacity="0.35"/><path d="M0 303 L800 309" stroke="#8a6f52" stroke-width="2" opacity="0.35"/><path d="M0 336 L800 342" stroke="#8a6f52" stroke-width="2" opacity="0.35"/><path d="M0 369 L800 375" stroke="#8a6f52" stroke-width="2" opacity="0.35"/><path d="M0 402 L800 408" stroke="#8a6f52" stroke-width="2" opacity="0.35"/><path d="M0 435 L800 441" stroke="#8a6f52" stroke-width="2" opacity="0.35"/><path d="M0 468 L800 474" stroke="#8a6f52" stroke-width="2" opacity="0.35"/><path d="M0 501 L800 507" stroke="#8a6f52" stroke-width="2" opacity="0.35"/><path d="M0 534 L800 540" stroke="#8a6f52" stroke-width="2" opacity="0.35"/><path d="M0 567 L800 573" stroke="#8a6f52" stroke-width="2" opacity="0.35"/><rect x="40" y="300" width="720" height="6" fill="#9c7a53" opacity="0.8"/><rect y="204.00000000000003" width="800" height="12" fill="#4f9e63" opacity="0.5"/><defs><radialGradient id="vig14" cx="0.5" cy="0.45" r="0.78"><stop offset="0.55" stop-color="#000" stop-opacity="0"/><stop offset="1" stop-color="#142822" stop-opacity="0.2"/></radialGradient></defs><rect width="800" height="600" fill="url(#vig14)"/></svg>